<mxfile host="app.diagrams.net" agent="Mozilla/5.0 (Windows NT 10.0; Win64; x64) AppleWebKit/537.36 (KHTML, like Gecko) Chrome/129.0.0.0 Safari/537.36" version="24.7.17">
  <diagram name="Page-1" id="l5dCe-DYXsbWzf9g3DMQ">
    <mxGraphModel dx="1050" dy="557" grid="1" gridSize="10" guides="1" tooltips="1" connect="1" arrows="1" fold="1" page="1" pageScale="1" pageWidth="850" pageHeight="1100" math="0" shadow="0">
      <root>
        <mxCell id="0" />
        <mxCell id="1" parent="0" />
        <mxCell id="CLCfJ98UEe6ffW_BrNZX-2" value="User" style="sketch=0;outlineConnect=0;fontColor=#232F3E;gradientColor=none;strokeColor=#232F3E;fillColor=#ffffff;dashed=0;verticalLabelPosition=bottom;verticalAlign=top;align=center;html=1;fontSize=12;fontStyle=0;aspect=fixed;shape=mxgraph.aws4.resourceIcon;resIcon=mxgraph.aws4.user;" vertex="1" parent="1">
          <mxGeometry x="20" y="150" width="60" height="60" as="geometry" />
        </mxCell>
        <mxCell id="CLCfJ98UEe6ffW_BrNZX-3" value="Search UI" style="swimlane;whiteSpace=wrap;html=1;" vertex="1" parent="1">
          <mxGeometry x="150" y="140" width="100" height="80" as="geometry" />
        </mxCell>
        <mxCell id="CLCfJ98UEe6ffW_BrNZX-5" value="WEB CRAWLER" style="sketch=0;outlineConnect=0;fontColor=#232F3E;gradientColor=none;fillColor=#8C4FFF;strokeColor=none;dashed=0;verticalLabelPosition=bottom;verticalAlign=top;align=center;html=1;fontSize=12;fontStyle=0;aspect=fixed;pointerEvents=1;shape=mxgraph.aws4.glue_crawlers;" vertex="1" parent="1">
          <mxGeometry x="410" y="30" width="78" height="78" as="geometry" />
        </mxCell>
        <mxCell id="CLCfJ98UEe6ffW_BrNZX-10" value="" style="group" vertex="1" connectable="0" parent="1">
          <mxGeometry x="590" y="140" width="80" height="100" as="geometry" />
        </mxCell>
        <mxCell id="CLCfJ98UEe6ffW_BrNZX-6" value="" style="shape=cylinder3;whiteSpace=wrap;html=1;boundedLbl=1;backgroundOutline=1;size=15;" vertex="1" parent="CLCfJ98UEe6ffW_BrNZX-10">
          <mxGeometry width="60" height="80" as="geometry" />
        </mxCell>
        <mxCell id="CLCfJ98UEe6ffW_BrNZX-7" value="" style="shape=cylinder3;whiteSpace=wrap;html=1;boundedLbl=1;backgroundOutline=1;size=15;" vertex="1" parent="CLCfJ98UEe6ffW_BrNZX-10">
          <mxGeometry x="10" y="10" width="60" height="80" as="geometry" />
        </mxCell>
        <mxCell id="CLCfJ98UEe6ffW_BrNZX-8" value="URL Repo" style="shape=cylinder3;whiteSpace=wrap;html=1;boundedLbl=1;backgroundOutline=1;size=15;" vertex="1" parent="CLCfJ98UEe6ffW_BrNZX-10">
          <mxGeometry x="20" y="20" width="60" height="80" as="geometry" />
        </mxCell>
        <mxCell id="CLCfJ98UEe6ffW_BrNZX-11" style="edgeStyle=orthogonalEdgeStyle;rounded=0;orthogonalLoop=1;jettySize=auto;html=1;entryX=0.5;entryY=0;entryDx=0;entryDy=0;entryPerimeter=0;" edge="1" parent="1" source="CLCfJ98UEe6ffW_BrNZX-5" target="CLCfJ98UEe6ffW_BrNZX-7">
          <mxGeometry relative="1" as="geometry" />
        </mxCell>
        <mxCell id="CLCfJ98UEe6ffW_BrNZX-16" value="" style="group" vertex="1" connectable="0" parent="1">
          <mxGeometry x="135.75" y="300" width="130" height="70" as="geometry" />
        </mxCell>
        <mxCell id="CLCfJ98UEe6ffW_BrNZX-13" value="" style="rounded=1;whiteSpace=wrap;html=1;" vertex="1" parent="CLCfJ98UEe6ffW_BrNZX-16">
          <mxGeometry width="120" height="60" as="geometry" />
        </mxCell>
        <mxCell id="CLCfJ98UEe6ffW_BrNZX-14" value="Web Servers&lt;div&gt;for Search Query Processing&lt;/div&gt;" style="rounded=1;whiteSpace=wrap;html=1;" vertex="1" parent="CLCfJ98UEe6ffW_BrNZX-16">
          <mxGeometry x="10" y="10" width="120" height="60" as="geometry" />
        </mxCell>
        <mxCell id="CLCfJ98UEe6ffW_BrNZX-17" value="Load Balancer" style="text;html=1;align=center;verticalAlign=middle;resizable=0;points=[];autosize=1;strokeColor=none;fillColor=none;" vertex="1" parent="1">
          <mxGeometry x="100" y="240" width="100" height="30" as="geometry" />
        </mxCell>
        <mxCell id="CLCfJ98UEe6ffW_BrNZX-15" value="" style="verticalLabelPosition=bottom;html=1;verticalAlign=top;align=center;strokeColor=none;fillColor=#00BEF2;shape=mxgraph.azure.load_balancer_generic;pointerEvents=1;" vertex="1" parent="1">
          <mxGeometry x="170" y="230" width="60" height="70" as="geometry" />
        </mxCell>
        <mxCell id="CLCfJ98UEe6ffW_BrNZX-22" value="" style="group" vertex="1" connectable="0" parent="1">
          <mxGeometry x="370" y="350" width="120" height="120" as="geometry" />
        </mxCell>
        <mxCell id="CLCfJ98UEe6ffW_BrNZX-19" value="" style="shape=datastore;html=1;labelPosition=center;verticalLabelPosition=bottom;align=center;verticalAlign=top;" vertex="1" parent="CLCfJ98UEe6ffW_BrNZX-22">
          <mxGeometry width="100" height="100" as="geometry" />
        </mxCell>
        <mxCell id="CLCfJ98UEe6ffW_BrNZX-20" value="" style="shape=datastore;html=1;labelPosition=center;verticalLabelPosition=bottom;align=center;verticalAlign=top;" vertex="1" parent="CLCfJ98UEe6ffW_BrNZX-22">
          <mxGeometry x="10" y="10" width="100" height="100" as="geometry" />
        </mxCell>
        <mxCell id="CLCfJ98UEe6ffW_BrNZX-21" value="Inverted Index" style="shape=datastore;html=1;labelPosition=center;verticalLabelPosition=bottom;align=center;verticalAlign=top;" vertex="1" parent="CLCfJ98UEe6ffW_BrNZX-22">
          <mxGeometry x="20" y="20" width="100" height="100" as="geometry" />
        </mxCell>
        <mxCell id="CLCfJ98UEe6ffW_BrNZX-23" style="edgeStyle=orthogonalEdgeStyle;rounded=0;orthogonalLoop=1;jettySize=auto;html=1;exitX=0.5;exitY=1;exitDx=0;exitDy=0;" edge="1" parent="1" source="CLCfJ98UEe6ffW_BrNZX-14" target="CLCfJ98UEe6ffW_BrNZX-20">
          <mxGeometry relative="1" as="geometry" />
        </mxCell>
        <mxCell id="CLCfJ98UEe6ffW_BrNZX-28" value="" style="group" vertex="1" connectable="0" parent="1">
          <mxGeometry x="580" y="370" width="140" height="80" as="geometry" />
        </mxCell>
        <mxCell id="CLCfJ98UEe6ffW_BrNZX-24" value="" style="rounded=1;whiteSpace=wrap;html=1;" vertex="1" parent="CLCfJ98UEe6ffW_BrNZX-28">
          <mxGeometry width="120" height="60" as="geometry" />
        </mxCell>
        <mxCell id="CLCfJ98UEe6ffW_BrNZX-25" value="" style="rounded=1;whiteSpace=wrap;html=1;" vertex="1" parent="CLCfJ98UEe6ffW_BrNZX-28">
          <mxGeometry x="10" y="10" width="120" height="60" as="geometry" />
        </mxCell>
        <mxCell id="CLCfJ98UEe6ffW_BrNZX-26" value="Ranking and inverted index creation" style="rounded=1;whiteSpace=wrap;html=1;" vertex="1" parent="CLCfJ98UEe6ffW_BrNZX-28">
          <mxGeometry x="20" y="20" width="120" height="60" as="geometry" />
        </mxCell>
        <mxCell id="CLCfJ98UEe6ffW_BrNZX-29" style="edgeStyle=orthogonalEdgeStyle;rounded=0;orthogonalLoop=1;jettySize=auto;html=1;exitX=0.5;exitY=1;exitDx=0;exitDy=0;exitPerimeter=0;entryX=0.5;entryY=0;entryDx=0;entryDy=0;" edge="1" parent="1" source="CLCfJ98UEe6ffW_BrNZX-8" target="CLCfJ98UEe6ffW_BrNZX-24">
          <mxGeometry relative="1" as="geometry" />
        </mxCell>
        <mxCell id="CLCfJ98UEe6ffW_BrNZX-30" style="edgeStyle=orthogonalEdgeStyle;rounded=0;orthogonalLoop=1;jettySize=auto;html=1;exitX=0;exitY=0.75;exitDx=0;exitDy=0;" edge="1" parent="1" source="CLCfJ98UEe6ffW_BrNZX-24" target="CLCfJ98UEe6ffW_BrNZX-21">
          <mxGeometry relative="1" as="geometry" />
        </mxCell>
      </root>
    </mxGraphModel>
  </diagram>
</mxfile>
